<svg id="my-svg" width="100%" xmlns="http://www.w3.org/2000/svg" xmlns:xlink="http://www.w3.org/1999/xlink" viewBox="-12.9765625 0 922.7421875 450" style="max-width: 922.742px; background-color: white;" role="graphics-document document" aria-roledescription="pie"><style>#my-svg{font-family:"trebuchet ms",verdana,arial,sans-serif;font-size:16px;fill:#333;}@keyframes edge-animation-frame{from{stroke-dashoffset:0;}}@keyframes dash{to{stroke-dashoffset:0;}}#my-svg .edge-animation-slow{stroke-dasharray:9,5!important;stroke-dashoffset:900;animation:dash 50s linear infinite;stroke-linecap:round;}#my-svg .edge-animation-fast{stroke-dasharray:9,5!important;stroke-dashoffset:900;animation:dash 20s linear infinite;stroke-linecap:round;}#my-svg .error-icon{fill:#552222;}#my-svg .error-text{fill:#552222;stroke:#552222;}#my-svg .edge-thickness-normal{stroke-width:1px;}#my-svg .edge-thickness-thick{stroke-width:3.5px;}#my-svg .edge-pattern-solid{stroke-dasharray:0;}#my-svg .edge-thickness-invisible{stroke-width:0;fill:none;}#my-svg .edge-pattern-dashed{stroke-dasharray:3;}#my-svg .edge-pattern-dotted{stroke-dasharray:2;}#my-svg .marker{fill:#333333;stroke:#333333;}#my-svg .marker.cross{stroke:#333333;}#my-svg svg{font-family:"trebuchet ms",verdana,arial,sans-serif;font-size:16px;}#my-svg p{margin:0;}#my-svg .pieCircle{stroke:black;stroke-width:2px;opacity:0.7;}#my-svg .pieOuterCircle{stroke:black;stroke-width:2px;fill:none;}#my-svg .pieTitleText{text-anchor:middle;font-size:25px;fill:black;font-family:"trebuchet ms",verdana,arial,sans-serif;}#my-svg .slice{font-family:"trebuchet ms",verdana,arial,sans-serif;fill:#333;font-size:17px;}#my-svg .legend text{fill:black;font-family:"trebuchet ms",verdana,arial,sans-serif;font-size:17px;}#my-svg .node .neo-node{stroke:#9370DB;}#my-svg [data-look="neo"].node rect,#my-svg [data-look="neo"].cluster rect,#my-svg [data-look="neo"].node polygon{stroke:#9370DB;filter:drop-shadow(1px 2px 2px rgba(185, 185, 185, 1));}#my-svg [data-look="neo"].node path{stroke:#9370DB;stroke-width:1px;}#my-svg [data-look="neo"].node .outer-path{filter:drop-shadow(1px 2px 2px rgba(185, 185, 185, 1));}#my-svg [data-look="neo"].node .neo-line path{stroke:#9370DB;filter:none;}#my-svg [data-look="neo"].node circle{stroke:#9370DB;filter:drop-shadow(1px 2px 2px rgba(185, 185, 185, 1));}#my-svg [data-look="neo"].node circle .state-start{fill:#000000;}#my-svg [data-look="neo"].icon-shape .icon{fill:#9370DB;filter:drop-shadow(1px 2px 2px rgba(185, 185, 185, 1));}#my-svg [data-look="neo"].icon-shape .icon-neo path{stroke:#9370DB;filter:drop-shadow(1px 2px 2px rgba(185, 185, 185, 1));}#my-svg :root{--mermaid-font-family:"trebuchet ms",verdana,arial,sans-serif;}</style><g/><g transform="translate(225,225)"><circle cx="0" cy="0" r="186" class="pieOuterCircle"/><path d="M0,-185A185,185,0,0,1,61.281,-174.556L0,0Z" fill="#ECECFF" class="pieCircle"/><path d="M61.281,-174.556A185,185,0,0,1,98.547,-156.568L0,0Z" fill="#ffffde" class="pieCircle"/><path d="M98.547,-156.568A185,185,0,0,1,146.298,-113.233L0,0Z" fill="hsl(80, 100%, 56.2745098039%)" class="pieCircle"/><path d="M146.298,-113.233A185,185,0,0,1,160.542,-91.931L0,0Z" fill="hsl(240, 100%, 86.2745098039%)" class="pieCircle"/><path d="M160.542,-91.931A185,185,0,0,1,179.731,-43.838L0,0Z" fill="hsl(60, 100%, 63.5294117647%)" class="pieCircle"/><path d="M179.731,-43.838A185,185,0,0,1,184.982,2.6L0,0Z" fill="hsl(80, 100%, 76.2745098039%)" class="pieCircle"/><path d="M184.982,2.6A185,185,0,0,1,54.522,176.783L0,0Z" fill="hsl(300, 100%, 76.2745098039%)" class="pieCircle"/><path d="M54.522,176.783A185,185,0,0,1,1.752,184.992L0,0Z" fill="hsl(180, 100%, 56.2745098039%)" class="pieCircle"/><path d="M1.752,184.992A185,185,0,0,1,-39.01,180.84L0,0Z" fill="hsl(0, 100%, 56.2745098039%)" class="pieCircle"/><path d="M-39.01,180.84A185,185,0,0,1,-19.125,-184.009L0,0Z" fill="hsl(300, 100%, 56.2745098039%)" class="pieCircle"/><path d="M-19.125,-184.009A185,185,0,0,1,0,-185L0,0Z" fill="hsl(0, 100%, 66.2745098039%)" class="pieCircle"/><text transform="translate(23.31159621663475,-136.77767355030053)" class="slice" style="text-anchor: middle;">5%</text><text transform="translate(60.31363725151238,-124.95530265456117)" class="slice" style="text-anchor: middle;">4%</text><text transform="translate(93.24390581003608,-102.74792712891642)" class="slice" style="text-anchor: middle;">6%</text><text transform="translate(115.34216767475579,-77.121636757064)" class="slice" style="text-anchor: middle;">2%</text><text transform="translate(128.87061384149283,-51.41913445515046)" class="slice" style="text-anchor: middle;">4%</text><text transform="translate(137.87148416023126,-15.588981860759906)" class="slice" style="text-anchor: middle;">4%</text><text transform="translate(111.05440384958818,83.17741211177811)" class="slice" style="text-anchor: middle;">20%</text><text transform="translate(21.326048104925626,137.10128435658945)" class="slice" style="text-anchor: middle;">5%</text><text transform="translate(-14.058186199677094,138.03597321269268)" class="slice" style="text-anchor: middle;">4%</text><text transform="translate(-138.5443979378643,-7.550648981028331)" class="slice" style="text-anchor: middle;">45%</text><text transform="translate(-7.181662430365194,-138.56401489829992)" class="slice" style="text-anchor: middle;">2%</text><text x="0" y="-200" class="pieTitleText">Lines of code by category (~30k LOC total)</text><g class="legend" transform="translate(216,-132)"><rect width="18" height="18" style="fill: rgb(236, 236, 255); stroke: rgb(236, 236, 255);"/><text x="22" y="14">Os &amp; Scheduler</text></g><g class="legend" transform="translate(216,-110)"><rect width="18" height="18" style="fill: rgb(255, 255, 222); stroke: rgb(255, 255, 222);"/><text x="22" y="14">Mcal (Pi4 drivers)</text></g><g class="legend" transform="translate(216,-88)"><rect width="18" height="18" style="fill: rgb(181, 255, 32); stroke: rgb(181, 255, 32);"/><text x="22" y="14">EcuM / BswM / ComM</text></g><g class="legend" transform="translate(216,-66)"><rect width="18" height="18" style="fill: rgb(185, 185, 255); stroke: rgb(185, 185, 255);"/><text x="22" y="14">Diag (Det/Dem/Dcm)</text></g><g class="legend" transform="translate(216,-44)"><rect width="18" height="18" style="fill: rgb(255, 255, 69); stroke: rgb(255, 255, 69);"/><text x="22" y="14">Memory (NvM/Fee/Ea/MemIf)</text></g><g class="legend" transform="translate(216,-22)"><rect width="18" height="18" style="fill: rgb(215, 255, 134); stroke: rgb(215, 255, 134);"/><text x="22" y="14">Network state (CanSM/CanNm/EthSM/UdpNm)</text></g><g class="legend" transform="translate(216,0)"><rect width="18" height="18" style="fill: rgb(255, 134, 255); stroke: rgb(255, 134, 255);"/><text x="22" y="14">Comm stack (Com/PduR/SoAd/TcpIp/EthIf/Eth/Can*)</text></g><g class="legend" transform="translate(216,22)"><rect width="18" height="18" style="fill: rgb(32, 255, 255); stroke: rgb(32, 255, 255);"/><text x="22" y="14">SecOC + FVM</text></g><g class="legend" transform="translate(216,44)"><rect width="18" height="18" style="fill: rgb(255, 32, 32); stroke: rgb(255, 32, 32);"/><text x="22" y="14">Csm + CryIf</text></g><g class="legend" transform="translate(216,66)"><rect width="18" height="18" style="fill: rgb(255, 32, 255); stroke: rgb(255, 32, 255);"/><text x="22" y="14">PQC modules</text></g><g class="legend" transform="translate(216,88)"><rect width="18" height="18" style="fill: rgb(32, 255, 144); stroke: rgb(32, 255, 144);"/><text x="22" y="14">Encrypt (AES)</text></g><g class="legend" transform="translate(216,110)"><rect width="18" height="18" style="fill: rgb(255, 83, 83); stroke: rgb(255, 83, 83);"/><text x="22" y="14">ApBridge + GUIInterface</text></g></g></svg>